<svg version="1.1" xmlns="http://www.w3.org/2000/svg" viewBox="0 0 967.4079818725586 481" width="967.4079818725586" height="481">
  <!-- svg-source:excalidraw -->
  
  <defs>
    <style class="style-fonts">
      @font-face {
        font-family: "Virgil";
        src: url("https://excalidraw.com/Virgil.woff2");
      }
      @font-face {
        font-family: "Cascadia";
        src: url("https://excalidraw.com/Cascadia.woff2");
      }
    </style>
    
  </defs>
  <rect x="0" y="0" width="967.4079818725586" height="481" fill="#ffffff"></rect><g stroke-linecap="round" transform="translate(148.9079818725586 19) rotate(0 97.5 88)"><path d="M32 0 M32 0 C69.24 0.54, 101.82 1.64, 163 0 M32 0 C81.64 -0.91, 129.9 -0.59, 163 0 M163 0 C186.31 -0.84, 194.82 11.8, 195 32 M163 0 C184.17 0.54, 195.23 11.69, 195 32 M195 32 C197.38 75.8, 196.6 114.46, 195 144 M195 32 C196.14 75.56, 194.94 121.63, 195 144 M195 144 C196.62 167.21, 185.33 177.91, 163 176 M195 144 C193.46 166.96, 185.56 178.08, 163 176 M163 176 C134.5 177.23, 107.98 178.8, 32 176 M163 176 C134.15 177.47, 103.56 177.62, 32 176 M32 176 C11.9 176.75, -1.36 167.16, 0 144 M32 176 C8.8 177.4, 0.98 163.51, 0 144 M0 144 C1.8 118.27, 1.33 90.31, 0 32 M0 144 C-0.06 106.31, 0.37 68.78, 0 32 M0 32 C-0.42 9.74, 10.99 0.94, 32 0 M0 32 C1.44 11.59, 8.83 0.74, 32 0" stroke="#1e1e1e" stroke-width="1" fill="none"></path></g><g transform="translate(178.9079818725586 44) rotate(0 64.70994567871094 12.5)"><text x="0" y="0" font-family="Virgil, Segoe UI Emoji" font-size="20px" fill="#1971c2" text-anchor="start" style="white-space: pre;" direction="ltr" dominant-baseline="text-before-edge">Raspberry PI</text></g><g transform="translate(168.9079818725586 84) rotate(0 72.01993560791016 50)"><text x="0" y="0" font-family="Virgil, Segoe UI Emoji" font-size="20px" fill="#1e1e1e" text-anchor="start" style="white-space: pre;" direction="ltr" dominant-baseline="text-before-edge">- Python </text><text x="0" y="25" font-family="Virgil, Segoe UI Emoji" font-size="20px" fill="#1e1e1e" text-anchor="start" style="white-space: pre;" direction="ltr" dominant-baseline="text-before-edge">- Cron Jobs</text><text x="0" y="50" font-family="Virgil, Segoe UI Emoji" font-size="20px" fill="#1e1e1e" text-anchor="start" style="white-space: pre;" direction="ltr" dominant-baseline="text-before-edge">- SQLite</text><text x="0" y="75" font-family="Virgil, Segoe UI Emoji" font-size="20px" fill="#1e1e1e" text-anchor="start" style="white-space: pre;" direction="ltr" dominant-baseline="text-before-edge">- Bash Scripts</text></g><g stroke-linecap="round" transform="translate(411.4079818725586 23) rotate(0 105 82)"><path d="M32 0 M32 0 C72.61 1, 112.71 0.93, 178 0 M32 0 C87.04 1.37, 141.01 0.45, 178 0 M178 0 C200.02 0.62, 210.13 11.82, 210 32 M178 0 C198.78 -0.56, 207.81 12.19, 210 32 M210 32 C208.36 72, 208.97 109.97, 210 132 M210 32 C209.29 52.47, 208.76 73.55, 210 132 M210 132 C212 154.67, 200.41 162.63, 178 164 M210 132 C207.74 153.17, 198 162.66, 178 164 M178 164 C124.62 163.18, 70.8 160.89, 32 164 M178 164 C144.85 163.54, 108.87 164.05, 32 164 M32 164 C11.77 163.11, 0.08 154.16, 0 132 M32 164 C9.08 163, 2.03 155.31, 0 132 M0 132 C0.57 103.65, -1.61 76.86, 0 32 M0 132 C1.52 99.19, 0.01 65.29, 0 32 M0 32 C0.42 10.58, 11.97 -0.6, 32 0 M0 32 C-0.81 11.36, 9.4 -1.53, 32 0" stroke="#1e1e1e" stroke-width="1" fill="none"></path></g><g transform="translate(444.19803619384766 39.5) rotate(0 68.91993713378906 12.5)"><text x="0" y="0" font-family="Virgil, Segoe UI Emoji" font-size="20px" fill="#f08c00" text-anchor="start" style="white-space: pre;" direction="ltr" dominant-baseline="text-before-edge">GH Repository</text></g><g stroke-linecap="round" transform="translate(748.4079818725586 10) rotate(0 97.5 91.5)"><path d="M32 0 M32 0 C68.12 -2.38, 108.95 -0.85, 163 0 M32 0 C75.8 0.61, 120.56 0.16, 163 0 M163 0 C184.76 0.05, 194.37 10.58, 195 32 M163 0 C185.49 -0.08, 196.3 9.3, 195 32 M195 32 C193.83 72.31, 192.76 115.64, 195 151 M195 32 C195.16 65.34, 195.95 98.56, 195 151 M195 151 C194.9 173.32, 184.45 184.16, 163 183 M195 151 C192.86 172.67, 182.87 181.89, 163 183 M163 183 C114.36 183.36, 69.26 182.62, 32 183 M163 183 C117.52 184.62, 71.99 183.72, 32 183 M32 183 C9.96 184.07, 1.76 173.46, 0 151 M32 183 C12.58 183.86, 1.23 172.56, 0 151 M0 151 C-0.43 105.22, 0.91 61.15, 0 32 M0 151 C0.28 104.71, 1.09 60.63, 0 32 M0 32 C-1.76 10.61, 12.63 0.88, 32 0 M0 32 C-0.76 12.61, 8.53 -0.16, 32 0" stroke="#1e1e1e" stroke-width="1" fill="none"></path></g><g stroke-linecap="round"><g transform="translate(348.9079818725586 93.08156926873318) rotate(0 31.06667414817025 -0.1638691466227158)"><path d="M0.17 -0.76 C10.21 -0.58, 50.86 0.12, 60.92 -0.02 M-1.19 1.45 C9.18 1.39, 52.65 -1.42, 63.33 -1.78" stroke="#1e1e1e" stroke-width="1" fill="none"></path></g><g transform="translate(348.9079818725586 93.08156926873318) rotate(0 31.06667414817025 -0.1638691466227158)"><path d="M34.42 8.93 C46.84 4.03, 54.12 -0.37, 64.65 -1.97 M36.68 10.03 C45.06 6.35, 53.24 1.94, 63.86 -0.9" stroke="#1e1e1e" stroke-width="1" fill="none"></path></g><g transform="translate(348.9079818725586 93.08156926873318) rotate(0 31.06667414817025 -0.1638691466227158)"><path d="M33.38 -11.57 C45.98 -9.13, 53.64 -6.18, 64.65 -1.97 M35.64 -10.47 C44.46 -7.4, 52.99 -5.07, 63.86 -0.9" stroke="#1e1e1e" stroke-width="1" fill="none"></path></g></g><mask></mask><g mask="url(#mask-f2HkKoyn-IxvEYviDBi4c)" stroke-linecap="round"><g transform="translate(626.9079818725586 94.24870357661769) rotate(0 58.57692551092714 -0.17071180099154049)"><path d="M0.45 -1.17 C20.11 -1.02, 98.37 0.31, 117.92 0.43 M-0.77 0.83 C18.81 0.72, 97.76 -0.5, 117.46 -1.07" stroke="#1e1e1e" stroke-width="1" fill="none"></path></g><g transform="translate(626.9079818725586 94.24870357661769) rotate(0 58.57692551092714 -0.17071180099154049)"><path d="M87.54 11.32 C99.93 7.7, 106.92 2.24, 116.85 -0.23 M90.19 9.93 C97.77 6.01, 105.4 3.44, 117.93 -1.5" stroke="#1e1e1e" stroke-width="1" fill="none"></path></g><g transform="translate(626.9079818725586 94.24870357661769) rotate(0 58.57692551092714 -0.17071180099154049)"><path d="M87.11 -9.2 C99.54 -6.65, 106.66 -5.94, 116.85 -0.23 M89.76 -10.59 C97.64 -8.95, 105.39 -5.95, 117.93 -1.5" stroke="#1e1e1e" stroke-width="1" fill="none"></path></g></g><mask id="mask-f2HkKoyn-IxvEYviDBi4c"><rect x="0" y="0" fill="#fff" width="843.9079818725586" height="195.0118142088814"></rect><rect x="653.3600006103516" y="73.8671482604858" fill="#000" width="64.09596252441406" height="40" opacity="1"></rect></mask><g transform="translate(653.3600006103516 73.8671482604858) rotate(0 32.12490677313417 20.21084351514034)"><text x="32.04798126220703" y="0" font-family="Virgil, Segoe UI Emoji" font-size="16px" fill="#1e1e1e" text-anchor="middle" style="white-space: pre;" direction="ltr" dominant-baseline="text-before-edge">GH </text><text x="32.04798126220703" y="20" font-family="Virgil, Segoe UI Emoji" font-size="16px" fill="#1e1e1e" text-anchor="middle" style="white-space: pre;" direction="ltr" dominant-baseline="text-before-edge">Actions </text></g><g transform="translate(769.9880447387695 18.5) rotate(0 47.5899658203125 12.5)"><text x="0" y="0" font-family="Virgil, Segoe UI Emoji" font-size="20px" fill="#2f9e44" text-anchor="start" style="white-space: pre;" direction="ltr" dominant-baseline="text-before-edge">GH Pages</text></g><g mask="url(#mask-cBSLFPZZQqc1Xj-nlJqlH)" stroke-linecap="round"><g transform="translate(36.907981872558594 110) rotate(0 53.63057782575487 -3.3433208608604446)"><path d="M-1.14 -0.43 C17.06 -1.55, 90.37 -5.49, 108.4 -6.25 M0.46 -1.71 C18.61 -2.68, 89.5 -4.02, 107.66 -4.88" stroke="#1e1e1e" stroke-width="1" fill="none"></path></g><g transform="translate(36.907981872558594 110) rotate(0 53.63057782575487 -3.3433208608604446)"><path d="M79.09 6.93 C85.78 2.31, 94.37 2.51, 108.19 -4.6 M79.05 7.13 C90.23 1.31, 99.96 -2.31, 108 -4.93" stroke="#1e1e1e" stroke-width="1" fill="none"></path></g><g transform="translate(36.907981872558594 110) rotate(0 53.63057782575487 -3.3433208608604446)"><path d="M78.43 -13.58 C85.36 -13.37, 94.1 -8.36, 108.19 -4.6 M78.4 -13.38 C89.76 -11.8, 99.72 -8.02, 108 -4.93" stroke="#1e1e1e" stroke-width="1" fill="none"></path></g></g><mask id="mask-cBSLFPZZQqc1Xj-nlJqlH"><rect x="0" y="0" fill="#fff" width="244.9079818725586" height="215.9310957494332"></rect><rect x="60.5" y="87.0344521252834" fill="#000" width="60.81596374511719" height="40" opacity="1"></rect></mask><g transform="translate(60.5 87.0344521252834) rotate(0 30.038559698313463 19.62222701385616)"><text x="30.407981872558594" y="0" font-family="Virgil, Segoe UI Emoji" font-size="16px" fill="#1e1e1e" text-anchor="middle" style="white-space: pre;" direction="ltr" dominant-baseline="text-before-edge">every </text><text x="30.407981872558594" y="20" font-family="Virgil, Segoe UI Emoji" font-size="16px" fill="#1e1e1e" text-anchor="middle" style="white-space: pre;" direction="ltr" dominant-baseline="text-before-edge">2 hours</text></g><g stroke-linecap="round" transform="translate(762.4079818725586 286) rotate(0 97.5 92.5)"><path d="M32 0 M32 0 C59.38 -0.77, 88.19 1.65, 163 0 M32 0 C65.43 -0.03, 100.04 -0.63, 163 0 M163 0 C183.47 -0.84, 196.37 10.19, 195 32 M163 0 C182.61 -0.65, 193.34 11.03, 195 32 M195 32 C193.81 60.76, 195.93 91.11, 195 153 M195 32 C194.68 68.62, 194.8 105.43, 195 153 M195 153 C196.19 173.25, 184.07 186.68, 163 185 M195 153 C196.83 176.25, 185.89 184.72, 163 185 M163 185 C124.2 182.53, 88.93 182.79, 32 185 M163 185 C120.67 185.1, 80.78 185.29, 32 185 M32 185 C12.54 184.7, 0.34 173.71, 0 153 M32 185 C9.75 187.22, 1.49 174.43, 0 153 M0 153 C0.13 114.41, -2.28 74.73, 0 32 M0 153 C-0.36 115.82, 0.85 79.9, 0 32 M0 32 C-0.67 8.98, 9.04 1.92, 32 0 M0 32 C1.7 8.55, 12.2 -0.02, 32 0" stroke="#1e1e1e" stroke-width="1" fill="none"></path></g><g transform="translate(807.9880447387695 299.5) rotate(0 47.999969482421875 12.5)"><text x="0" y="0" font-family="Virgil, Segoe UI Emoji" font-size="20px" fill="#e03131" text-anchor="start" style="white-space: pre;" direction="ltr" dominant-baseline="text-before-edge">Front End</text></g><g transform="translate(796.4580307006836 339) rotate(0 65.4099349975586 50)"><text x="0" y="0" font-family="Virgil, Segoe UI Emoji" font-size="20px" fill="#1e1e1e" text-anchor="start" style="white-space: pre;" direction="ltr" dominant-baseline="text-before-edge">- React</text><text x="0" y="25" font-family="Virgil, Segoe UI Emoji" font-size="20px" fill="#1e1e1e" text-anchor="start" style="white-space: pre;" direction="ltr" dominant-baseline="text-before-edge">- Type Script</text><text x="0" y="50" font-family="Virgil, Segoe UI Emoji" font-size="20px" fill="#1e1e1e" text-anchor="start" style="white-space: pre;" direction="ltr" dominant-baseline="text-before-edge">- Daisy UI</text><text x="0" y="75" font-family="Virgil, Segoe UI Emoji" font-size="20px" fill="#1e1e1e" text-anchor="start" style="white-space: pre;" direction="ltr" dominant-baseline="text-before-edge">- Vercel SWR</text></g><g transform="translate(426.4580307006836 79) rotate(0 94.96991729736328 37.5)"><text x="0" y="0" font-family="Virgil, Segoe UI Emoji" font-size="20px" fill="#1e1e1e" text-anchor="start" style="white-space: pre;" direction="ltr" dominant-baseline="text-before-edge">- Version Control</text><text x="0" y="25" font-family="Virgil, Segoe UI Emoji" font-size="20px" fill="#1e1e1e" text-anchor="start" style="white-space: pre;" direction="ltr" dominant-baseline="text-before-edge">- Stores static </text><text x="0" y="50" font-family="Virgil, Segoe UI Emoji" font-size="20px" fill="#1e1e1e" text-anchor="start" style="white-space: pre;" direction="ltr" dominant-baseline="text-before-edge">JSON files created</text></g><g transform="translate(765.258056640625 58.5) rotate(0 83.7999267578125 62.5)"><text x="0" y="0" font-family="Virgil, Segoe UI Emoji" font-size="20px" fill="#1e1e1e" text-anchor="start" style="white-space: pre;" direction="ltr" dominant-baseline="text-before-edge">- Cloud Front </text><text x="0" y="25" font-family="Virgil, Segoe UI Emoji" font-size="20px" fill="#1e1e1e" text-anchor="start" style="white-space: pre;" direction="ltr" dominant-baseline="text-before-edge">    cache</text><text x="0" y="50" font-family="Virgil, Segoe UI Emoji" font-size="20px" fill="#1e1e1e" text-anchor="start" style="white-space: pre;" direction="ltr" dominant-baseline="text-before-edge">- Static hosting </text><text x="0" y="75" font-family="Virgil, Segoe UI Emoji" font-size="20px" fill="#1e1e1e" text-anchor="start" style="white-space: pre;" direction="ltr" dominant-baseline="text-before-edge">via GH pages</text><text x="0" y="100" font-family="Virgil, Segoe UI Emoji" font-size="20px" fill="#1e1e1e" text-anchor="start" style="white-space: pre;" direction="ltr" dominant-baseline="text-before-edge">- Minified</text></g><g mask="url(#mask-FvDh2uMNmzL9vv8AaMatu)" stroke-linecap="round"><g transform="translate(846.7685890442456 282.5) rotate(0 -0.6665592959679998 -45.66174260303379)"><path d="M-1.16 1.17 C-1.44 -14.15, -1.01 -77.2, -1.06 -92.5 M0.43 0.74 C-0.02 -14.41, -1.33 -75.95, -1.76 -91.48" stroke="#e03131" stroke-width="1" fill="none"></path></g><g transform="translate(846.7685890442456 282.5) rotate(0 -0.6665592959679998 -45.66174260303379)"><path d="M11.13 -62.77 C3.8 -73.33, 3.15 -81.37, -0.89 -89.5 M8.98 -63.01 C4.46 -72.78, 1.61 -80.93, -1.4 -92.23" stroke="#e03131" stroke-width="1" fill="none"></path></g><g transform="translate(846.7685890442456 282.5) rotate(0 -0.6665592959679998 -45.66174260303379)"><path d="M-9.38 -62.28 C-9.5 -72.81, -2.95 -81.03, -0.89 -89.5 M-11.53 -62.51 C-9.5 -72.59, -5.8 -80.89, -1.4 -92.23" stroke="#e03131" stroke-width="1" fill="none"></path></g></g><mask id="mask-FvDh2uMNmzL9vv8AaMatu"><rect x="0" y="0" fill="#fff" width="948.2909749189471" height="474"></rect><rect x="792.2554353525002" y="226.75" fill="#000" width="107.50392150878906" height="20" opacity="1"></rect></mask><g transform="translate(792.2554353525002 226.75) rotate(0 53.8465943957774 10.088257396966213)"><text x="53.75196075439453" y="0" font-family="Virgil, Segoe UI Emoji" font-size="16px" fill="#e03131" text-anchor="middle" style="white-space: pre;" direction="ltr" dominant-baseline="text-before-edge">consumes API</text></g></svg>